<?xml version="1.0" encoding="utf-8"?>
<!-- Generator: Adobe Illustrator 16.0.4, SVG Export Plug-In . SVG Version: 6.00 Build 0)  -->
<!DOCTYPE svg PUBLIC "-//W3C//DTD SVG 1.1//EN" "http://www.w3.org/Graphics/SVG/1.1/DTD/svg11.dtd">
<svg version="1.1" id="Layer_1" xmlns="http://www.w3.org/2000/svg" xmlns:xlink="http://www.w3.org/1999/xlink" x="0px" y="0px"
	 width="310px" height="310px" viewBox="0 0 310 310" enable-background="new 0 0 310 310" xml:space="preserve">
<path fill="#489FCA" d="M228.069,91.894c7.309,2.592,10.961,8.55,10.961,17.89v19.572c0,14.847-6.978,22.272-20.92,22.272h-43.365
	V42.456h42.014c13.95,0,20.921,7.429,20.921,22.275v9.955C237.68,83.686,234.48,89.426,228.069,91.894z M210.853,58.487h-12.487
	v29.188h12.487c0.899,0,1.659-0.338,2.279-1.013c0.616-0.672,0.931-1.453,0.931-2.359V61.864c0-0.902-0.314-1.691-0.931-2.364
	C212.512,58.823,211.752,58.487,210.853,58.487z M215.407,132.052v-24.466c0-0.897-0.314-1.686-0.926-2.357
	c-0.619-0.679-1.369-1.016-2.273-1.016h-13.843v31.221h13.843c0.904,0,1.654-0.346,2.273-1.023
	C215.093,133.736,215.407,132.955,215.407,132.052z"/>
<path fill="#225173" d="M84.16,151.042H60.839V63.59c0-14.656,6.881-21.986,20.658-21.986h12.324c8.105,0,13.879,2.668,17.323,7.999
	c3.22-5.331,8.995-7.999,17.324-7.999h12.323c13.769,0,20.659,7.331,20.659,21.986v87.451h-23.322V61.596
	c0-0.892-0.306-1.669-0.914-2.335c-0.615-0.664-1.36-0.997-2.251-0.997h-8.995c-0.89,0-1.641,0.333-2.247,0.997
	c-0.611,0.667-0.917,1.443-0.917,2.335v89.445h-23.32V61.596c0-0.892-0.306-1.669-0.914-2.335c-0.613-0.664-1.364-0.997-2.25-0.997
	h-8.997c-0.889,0-1.638,0.333-2.248,0.997c-0.615,0.667-0.916,1.443-0.916,2.335V151.042z"/>
<g>
	<path fill="#489FCA" d="M240.21,191.994c-57.137,0-69.091,0-126.229,0c2.869-9.348,2.869-19.348,0-28.703
		c57.138,0,69.092,0,126.229,0C243.09,172.646,243.09,182.646,240.21,191.994z"/>
	<path fill="#489FCA" d="M270.395,227.868c-49.575,0-73.625,0-123.2,0c2.874-9.348,2.874-19.347,0-28.698c49.575,0,73.625,0,123.2,0
		C273.272,208.521,273.272,218.521,270.395,227.868z"/>
	<path fill="#489FCA" d="M261.327,263.745c-65.414,0-96.848,0-162.259,0c2.874-9.354,2.874-19.35,0-28.702
		c65.411,0,96.845,0,162.259,0C264.2,244.396,264.2,254.391,261.327,263.745z"/>
	<path fill="#C6D9E4" d="M107.503,191.994c-17.961,0-43.829,0-61.793,0c2.875-9.348,2.875-19.348,0-28.703
		c17.964,0,43.832,0,61.793,0C110.384,172.646,110.384,182.646,107.503,191.994z"/>
	<path fill="#C6D9E4" d="M140.721,227.868c-25.521,0-40.581,0-66.103,0c2.877-9.348,2.877-19.347,0-28.698
		c25.522,0,40.581,0,66.103,0C143.594,208.521,143.594,218.521,140.721,227.868z"/>
	<path fill="#C6D9E4" d="M92.589,263.745c-9.693,0-25.484,0-35.172,0c2.869-9.354,2.869-19.35,0-28.702c9.688,0,25.479,0,35.172,0
		C95.464,244.396,95.464,254.391,92.589,263.745z"/>
</g>
</svg>
